<?xml version="1.0" encoding="utf-8"?>
<!-- Generator: Adobe Illustrator 24.0.1, SVG Export Plug-In . SVG Version: 6.00 Build 0)  -->
<svg version="1.1" id="Capa_1" xmlns="http://www.w3.org/2000/svg" xmlns:xlink="http://www.w3.org/1999/xlink" x="0px" y="0px"
	 viewBox="0 0 612 238.1" style="enable-background:new 0 0 612 238.1;" xml:space="preserve">
<style type="text/css">
	.st0{fill:#FFFFFF;}
</style>
<g>
	<path class="st0" d="M31,159.8c-3.6-2.1-5.3-4.9-5.3-8.6c0-1.9,0.4-3.6,1.2-5c0.8-1.5,2.1-2.2,3.8-2.2c1.3,0,2.3,0.5,3.1,1.4
		c0.7,0.9,1.1,2.3,1.2,4c0,2.6,0.8,4.5,2.2,5.8c1.4,1.3,3.4,1.9,6,1.9c2.8,0,5-0.8,6.7-2.4s2.5-3.6,2.5-5.9c0-2-0.7-3.7-2-5
		c-1.4-1.3-3.5-2.6-6.4-3.8c-3.9-1.6-6.7-3.6-8.5-5.8c-1.8-2.3-2.7-5-2.7-8.1c0-3.2,0.7-5.9,2.2-8.4c1.4-2.4,3.5-4.3,6.3-5.6
		c2.8-1.3,6.1-2,9.9-2c3.6,0,6.8,0.5,9.6,1.5c2.8,1,5.1,2.5,6.7,4.4c1.6,1.9,2.4,4.1,2.4,6.6c0,1.7-0.4,3-1.2,4
		c-0.8,1-2.1,1.5-3.8,1.5c-1.2,0-2.1-0.4-2.7-1.1c-0.6-0.8-1-2-1-3.7c-0.1-2.4-1-4.3-2.7-5.6c-1.6-1.3-3.6-2-6-2
		c-2.3,0-4.1,0.6-5.4,1.8c-1.3,1.2-1.9,2.9-1.9,5.3c0,1.7,0.6,3.2,1.9,4.3c1.2,1.2,3.5,2.4,6.7,3.8c4.7,1.9,8,4,10,6.2
		c2,2.2,3,5.2,3,8.9c0,2.7-0.8,5.4-2.4,8c-1.6,2.6-4,4.7-7.2,6.4c-3.2,1.7-7.2,2.6-12,2.6C39.2,162.9,34.6,161.9,31,159.8z"/>
	<path class="st0" d="M72.6,156.1c0-1.4,0.3-3.3,0.9-5.8l3.1-13.6c0.1-0.6,0.2-1.1,0.2-1.5c0-1.1-0.5-1.8-1.4-2.3
		c-0.4-0.1-0.9-0.3-1.4-0.4c-0.6-0.1-1-0.3-1.2-0.5c-0.3-0.2-0.4-0.5-0.4-0.8c0-0.6,0.3-1.1,0.8-1.5c0.6-0.4,1.4-0.8,2.7-1.2
		c5.3-1.5,8.9-2.2,10.8-2.2c0.9,0,1.5,0.1,1.9,0.4c0.4,0.2,0.6,0.7,0.6,1.2c0,0.1,0,0.5-0.1,0.9l-4.8,22.2c-0.1,0.6-0.2,1.1-0.2,1.6
		c0,1.4,0.6,2.1,1.7,2.1c0.6,0,1.2-0.2,1.7-0.7c0.5-0.5,1.1-1.3,1.8-2.3c0.3-0.3,0.7-0.5,1.2-0.5c0.4,0,0.7,0.1,1,0.4
		c0.3,0.3,0.4,0.7,0.4,1.2c0,0.5-0.2,1.1-0.5,1.8c-0.9,2.3-2.4,4.3-4.5,5.9c-2,1.6-4.3,2.4-6.8,2.4C75,162.9,72.6,160.6,72.6,156.1z
		 M79.6,120.9c-0.7-0.5-1.1-1.2-1.1-2.1c0-1.2,0.5-2.3,1.5-3.4c1-1,2.4-1.9,4.1-2.5c1.7-0.6,3.4-0.9,5.3-0.9c1.3,0,2.3,0.3,3,0.8
		c0.7,0.5,1,1.2,1,2.2c0,1.2-0.5,2.3-1.5,3.3c-1,1-2.3,1.9-3.9,2.5c-1.6,0.6-3.3,0.9-5.1,0.9C81.4,121.7,80.3,121.4,79.6,120.9z"/>
	<path class="st0" d="M140.1,155.8c0-1.5,0.2-3.3,0.7-5.5l1.9-8.4c0.3-1.5,0.5-2.8,0.5-3.9c0-2.3-0.9-3.5-2.7-3.5
		c-1.2,0-2.4,0.5-3.7,1.5c-1.3,1-2.5,2.5-3.5,4.4c-1.1,1.9-1.9,4.2-2.4,6.9c-0.9,4.9-1.6,8.6-1.9,11.1c-0.1,1.1-0.4,1.9-0.9,2.4
		c-0.5,0.5-1.5,0.9-2.8,1.2c-1.4,0.2-3.4,0.4-6.1,0.4c-0.7,0-1.2-0.2-1.6-0.5c-0.4-0.3-0.5-0.7-0.5-1.2c0-0.1,0-0.4,0.1-0.8
		c0.3-1.2,0.6-2.3,0.9-3.4c0.9-3.5,1.5-5.8,1.7-6.8l1.7-7.7c0.3-1.5,0.5-2.8,0.5-4c0-1.3-0.2-2.2-0.7-2.8c-0.5-0.5-1.2-0.8-2.2-0.8
		c-1.1,0-2.2,0.5-3.5,1.5c-1.3,1-2.4,2.5-3.5,4.4c-1.1,1.9-1.9,4.2-2.4,6.9c-0.9,4.7-1.5,8.4-1.9,11.1c-0.1,1.1-0.4,1.9-0.9,2.4
		c-0.5,0.5-1.5,0.9-2.8,1.2c-1.4,0.2-3.4,0.4-6.1,0.4c-0.7,0-1.2-0.2-1.6-0.5c-0.4-0.3-0.5-0.7-0.5-1.3c0-0.1,0-0.3,0.1-0.7l0.7-2.4
		c0.8-2.5,1.4-5.1,2-7.7l2.9-13.1c0.1-0.8,0.1-1.3,0.1-1.5c0-1.2-0.4-1.9-1.3-2.3c-0.4-0.1-0.9-0.3-1.4-0.4c-0.6-0.1-1-0.3-1.2-0.5
		c-0.3-0.2-0.4-0.5-0.4-0.8c0-0.7,0.3-1.2,0.9-1.6c0.6-0.4,1.5-0.7,2.6-1.1c5.3-1.5,8.9-2.2,10.8-2.2c0.9,0,1.5,0.1,1.9,0.4
		c0.4,0.2,0.5,0.7,0.5,1.3c0,0.3,0,0.6-0.1,0.9l-1.1,4.6c-0.2,0.8-0.1,1.2,0.2,1.2c0.2,0,0.5-0.2,0.8-0.7c3.5-5.4,7.5-8.2,12.1-8.2
		c2.5,0,4.4,0.7,5.7,2.2c1.3,1.5,1.9,3.5,1.9,6c0,0.8,0.1,1.2,0.4,1.2c0.3,0,0.6-0.3,0.8-0.8c1.3-2.4,3-4.4,5.1-6.1
		c2.2-1.7,4.6-2.5,7.2-2.5c2.5,0,4.4,0.6,5.8,1.8c1.4,1.2,2.1,3.2,2.1,5.9c0,1.2-0.2,2.7-0.6,4.5l-2.8,13c-0.1,0.6-0.2,1.1-0.2,1.5
		c0,1.5,0.6,2.2,1.7,2.2c0.6,0,1.2-0.2,1.7-0.7c0.5-0.5,1.1-1.3,1.7-2.3c0.3-0.4,0.7-0.6,1.2-0.6c0.4,0,0.7,0.1,0.9,0.4
		c0.2,0.3,0.4,0.7,0.4,1.2c0,0.6-0.1,1.2-0.4,1.8c-0.9,2.3-2.3,4.3-4.2,5.9c-1.9,1.6-4.3,2.4-7.2,2.4
		C142.5,162.9,140.1,160.6,140.1,155.8z"/>
	<path class="st0" d="M166.3,159c-2.8-2.6-4.1-6.1-4.1-10.4c0-2.9,0.8-6.2,2.3-9.7c1.6-3.6,4.1-6.6,7.5-9.2
		c3.5-2.6,7.8-3.9,13.1-3.9c4.8,0,8.6,1.3,11.2,3.9c2.7,2.6,4,6.1,4,10.5c0,2.9-0.8,6.1-2.3,9.7c-1.5,3.5-4,6.6-7.3,9.2
		c-3.4,2.6-7.7,3.9-12.8,3.9C173,162.8,169.1,161.6,166.3,159z M184.6,154.5c1.6-2.5,2.7-5.3,3.5-8.5c0.8-3.2,1.2-5.8,1.2-7.7
		c0-2.4-0.5-4.3-1.4-5.7c-0.9-1.4-2.3-2-4.1-2c-2.2,0-4.1,1.2-5.7,3.7c-1.6,2.5-2.7,5.3-3.5,8.5c-0.8,3.2-1.2,5.8-1.2,7.7
		c0,2.5,0.4,4.4,1.4,5.8c0.9,1.4,2.3,2,4.1,2C181.1,158.2,183,156.9,184.6,154.5z M182.7,122.2c0-0.4,0.5-1.2,1.3-2.2
		c0.8-1,2-2.4,3.6-4.2l2.6-3c0.5-0.9,1.2-1.5,2-1.8c0.8-0.2,2-0.4,3.6-0.4c1.5,0,2.5,0.1,3.1,0.4c0.6,0.3,0.8,0.8,0.7,1.5
		c-0.1,0.8-1.3,2.1-3.5,3.8c-2.2,1.7-11.2,6.9-12,6.9C183,123.4,182.6,123,182.7,122.2z"/>
	<path class="st0" d="M227.5,155.9c0-1.5,0.3-3.4,0.9-5.7l2.3-9.6c0.2-1.1,0.4-1.9,0.4-2.6c0-1.2-0.3-2.1-0.9-2.7s-1.4-0.9-2.4-0.9
		c-1.4,0-2.8,0.5-4.2,1.5c-1.4,1-2.7,2.5-3.8,4.4c-1.1,1.9-1.9,4.2-2.4,6.9c-0.9,5.1-1.6,8.8-1.9,11.1c-0.1,1.1-0.4,1.9-0.9,2.4
		c-0.5,0.5-1.5,0.9-2.8,1.2c-1.4,0.2-3.4,0.4-6.1,0.4c-0.7,0-1.2-0.2-1.6-0.5c-0.4-0.3-0.5-0.7-0.5-1.3c0-0.1,0-0.3,0.1-0.7l0.5-2
		c1.2-4.4,2.8-11.4,5-21.2c0.1-0.8,0.1-1.3,0.1-1.6c0-1.1-0.4-1.9-1.3-2.3c-0.4-0.1-0.9-0.3-1.4-0.4c-0.6-0.1-1-0.3-1.2-0.5
		c-0.3-0.2-0.4-0.5-0.4-0.8c0-0.7,0.3-1.2,0.9-1.6c0.6-0.4,1.5-0.7,2.6-1.1c5.3-1.5,8.9-2.2,10.8-2.2c0.9,0,1.5,0.1,1.9,0.4
		c0.4,0.2,0.5,0.7,0.5,1.3c0,0.3,0,0.6-0.1,0.9l-1.1,4.5c0,0.2-0.1,0.5-0.1,0.8c0,0.3,0.1,0.5,0.3,0.5c0.2,0,0.4-0.2,0.7-0.7
		c1.7-2.5,3.6-4.5,5.7-5.9c2.1-1.5,4.6-2.2,7.6-2.2c2.4,0,4.3,0.7,5.7,2c1.4,1.3,2.2,3.3,2.2,6.1c0,1.4-0.2,2.8-0.5,4.2l-3,12.9
		c-0.1,0.6-0.2,1.1-0.2,1.6c0,0.7,0.1,1.2,0.4,1.6c0.3,0.4,0.7,0.5,1.2,0.5c0.6,0,1.2-0.2,1.7-0.7c0.5-0.5,1-1.2,1.6-2.3
		c0.4-0.4,0.8-0.7,1.3-0.7c0.4,0,0.7,0.2,1,0.5c0.3,0.3,0.4,0.7,0.4,1.3c0,0.5-0.1,1.1-0.4,1.8c-0.9,2.3-2.4,4.3-4.4,5.9
		c-2,1.6-4.4,2.4-7,2.4C229.8,162.9,227.5,160.6,227.5,155.9z"/>
	<path class="st0" d="M269.5,161.5c-0.6-0.3-0.9-0.8-0.9-1.5c0-0.7,0.3-1.3,0.8-1.8c0.6-0.5,1.2-0.8,1.9-1c1.6-0.3,2.8-0.9,3.5-1.8
		s1.5-2.5,2.3-4.7l10.1-30.4c0.3-1,0.5-1.9,0.5-2.6c0-0.7-0.2-1.3-0.7-1.7c-0.4-0.4-1.2-0.8-2.2-1.1c-0.4-0.2-0.8-0.5-1-0.9
		c-0.2-0.4-0.3-0.9-0.2-1.4c0.1-0.8,0.5-1.4,1.2-1.6c0.7-0.2,1.5-0.4,2.5-0.4l3.8,0.1c0.8,0,1.8,0.1,3.2,0.1c1.3,0,2.2,0.1,2.7,0.4
		c0.6,0.2,0.9,0.6,1.1,1s0.2,1.1,0.3,2c0,1.3,0.1,2.4,0.3,3.3l5.3,26.4c0.1,0.6,0.4,0.9,0.7,0.9c0.2,0,0.4-0.1,0.6-0.3
		c0.2-0.2,0.3-0.4,0.4-0.6l16.1-26.5c0.5-0.8,0.8-1.5,1.1-2.3s0.4-1.2,0.4-1.3c0.2-0.8,0.5-1.4,0.7-1.8c0.2-0.4,0.6-0.7,1.2-0.9
		c0.6-0.2,1.5-0.3,2.6-0.3c1.4,0,2.5,0,3.2,0c0.7,0,1.3,0,1.7,0c0.6,0,1.6-0.1,3.1-0.1c2.3,0,3.4,0.6,3.4,1.9c0,0.5-0.3,1.1-0.8,1.6
		c-0.5,0.5-1.1,0.9-1.8,1.2c-1.1,0.2-1.9,0.5-2.4,0.8c-0.5,0.3-0.9,0.8-1.2,1.4c-0.2,0.6-0.5,1.6-0.7,2.9l-3.7,30.7
		c-0.1,1.1-0.1,1.8-0.1,2c0,1.2,0.2,2,0.7,2.6c0.4,0.6,1.3,1,2.5,1.3c1.3,0.3,2,0.9,2,1.8c0,1-0.4,1.8-1.2,2.2
		c-0.8,0.5-1.6,0.7-2.3,0.7h-16.7c-2.3,0-3.5-0.6-3.5-1.9c0-0.6,0.3-1.2,0.8-1.7c0.5-0.5,1.1-0.9,1.8-1.1c1.7-0.4,2.8-0.9,3.5-1.5
		c0.7-0.6,1.1-1.8,1.3-3.5l3.2-22c0-0.2,0-0.4-0.1-0.6c-0.1-0.2-0.2-0.3-0.4-0.3c-0.2,0-0.4,0.2-0.7,0.5c-0.3,0.3-0.4,0.5-0.5,0.6
		l-18.8,29.6c-0.8,1.2-1.5,1.8-2.1,1.8s-1.1-0.6-1.5-1.7l-6.6-29.7c-0.2-0.7-0.4-1.1-0.7-1.1c-0.4,0-0.7,0.3-0.8,0.9l-6.6,22.3
		c-0.2,0.7-0.4,1.4-0.4,2.1c0,0.9,0.3,1.5,0.8,1.8c0.6,0.3,1.5,0.6,2.8,0.8c0.5,0.1,0.9,0.3,1.1,0.7c0.3,0.3,0.4,0.7,0.4,1.2
		c0,0.8-0.4,1.5-1.1,2c-0.7,0.5-1.8,0.8-3.1,0.8h-10.5C270.9,162,270.1,161.9,269.5,161.5z"/>
	<path class="st0" d="M340.3,159.9c-1.7-2-2.6-4.8-2.6-8.3c0-4,0.8-8,2.4-11.9c1.6-4,3.9-7.2,6.9-9.8c3-2.6,6.6-3.9,10.7-3.9
		c2.5,0,5,0.9,7.4,2.6c1.4,0.8,2.6,1.2,3.6,1.2c0.5,0,0.9-0.1,1.3-0.3c0.4-0.2,0.9-0.6,1.6-1.2c0.9-0.9,1.6-1.5,2.1-1.8
		c0.5-0.3,1-0.5,1.5-0.5c0.5,0,0.9,0.1,1.1,0.4c0.3,0.2,0.4,0.6,0.4,1c0,0.3,0,0.5-0.1,0.7l-5,23.1c-0.1,0.3-0.1,0.9-0.1,1.5
		c0,1.5,0.6,2.2,1.7,2.2c0.6,0,1.2-0.2,1.7-0.7c0.5-0.5,1.1-1.2,1.6-2.3c0.4-0.4,0.9-0.6,1.4-0.6c0.4,0,0.7,0.1,0.9,0.4
		c0.2,0.3,0.3,0.6,0.3,1.1c0,0.6-0.2,1.2-0.5,1.9c-1,2.4-2.5,4.4-4.3,6c-1.9,1.6-4,2.4-6.5,2.4c-2.2,0-3.9-0.6-5.1-1.9
		c-1.2-1.2-1.8-2.8-1.8-4.8c0-0.5,0-0.9,0.1-1.2v-0.1c0-0.5-0.1-0.7-0.4-0.7c-0.2,0-0.5,0.2-0.7,0.5c-1.8,2.4-3.6,4.4-5.5,5.9
		c-1.9,1.5-4.1,2.3-6.7,2.3C344.6,162.9,342.1,161.9,340.3,159.9z M358.9,151.2c1.8-2.3,3-4.8,3.7-7.5c0.5-2,0.9-3.5,1.1-4.6
		c0.2-1.1,0.3-2.1,0.3-3c0-1.8-0.4-3.2-1.3-4.1c-0.9-0.9-2-1.4-3.4-1.4c-1.9,0-3.6,1-5.2,2.9c-1.6,1.9-2.8,4.2-3.6,7
		c-0.9,2.7-1.3,5.2-1.3,7.4c0,2.1,0.4,3.8,1.1,5c0.7,1.2,1.7,1.8,3,1.8C355.2,154.7,357.1,153.5,358.9,151.2z"/>
	<path class="st0" d="M383.9,161.9c-0.4-0.3-0.5-0.7-0.5-1.3c0-0.1,0-0.3,0.1-0.7c1.3-4.6,2.1-8,2.6-10.2l2.9-12.9
		c0.1-0.7,0.2-1.3,0.2-1.8c0-1.2-0.5-1.9-1.4-2.1c-1-0.2-1.8-0.4-2.3-0.7c-0.5-0.2-0.8-0.6-0.8-1.2c0-0.7,0.3-1.2,0.9-1.6
		c0.6-0.4,1.5-0.8,2.7-1.1c5-1.4,8.5-2.1,10.7-2.1c0.8,0,1.4,0.1,1.8,0.4c0.4,0.2,0.6,0.7,0.6,1.2c0,0.2,0,0.5-0.1,1l-1.2,5.2
		c0,0.2-0.1,0.4-0.1,0.7c0,0.3,0.1,0.5,0.3,0.5c0.2,0,0.5-0.3,0.9-0.9c1.6-2.5,3.3-4.5,5.3-6.1c1.9-1.6,3.9-2.4,6-2.4
		c1.9,0,3.4,0.6,4.4,1.9c1,1.3,1.5,3,1.5,5c0,2.6-0.5,4.6-1.6,6.1c-1.1,1.4-2.5,2.1-4.1,2.1c-0.9,0-1.6-0.2-2.1-0.5
		c-0.5-0.4-0.9-0.9-1.2-1.6c-0.1-0.3-0.2-0.9-0.3-1.6c-0.1-0.8-0.4-1.3-0.7-1.7c-0.3-0.4-0.9-0.6-1.7-0.6c-1.2,0-2.4,0.5-3.6,1.5
		c-1.3,1-2.4,2.5-3.5,4.4c-1,1.9-1.8,4.1-2.3,6.6c-0.9,4.9-1.6,8.6-1.9,11.1c-0.1,1.1-0.4,1.9-0.9,2.4c-0.5,0.5-1.5,0.9-2.8,1.2
		c-1.4,0.2-3.4,0.4-6.1,0.4C384.8,162.4,384.3,162.2,383.9,161.9z"/>
	<path class="st0" d="M420.4,154.7c0-0.9,0.2-2.3,0.5-4.1l3.7-17.6c0-0.1,0.1-0.3,0.1-0.6c0-0.7-0.4-1.1-1.3-1.1h-1.2
		c-0.5,0-0.9-0.2-1.2-0.5c-0.3-0.3-0.4-0.7-0.4-1.2c0-0.9,0.6-1.9,1.7-3.1c1.1-1.2,2.8-2.7,4.9-4.4c4.7-3.8,8-5.7,9.9-5.7
		c0.5,0,0.8,0.1,1.1,0.3c0.2,0.2,0.3,0.5,0.3,0.9c0,0.4-0.1,0.9-0.2,1.5l-0.8,4.2c-0.3,1.2-0.4,2-0.4,2.5c0,0.3,0.1,0.6,0.2,0.7
		c0.1,0.1,0.4,0.1,0.8,0.1h8.8c0.5,0,0.9,0,1.2,0.1c0.2,0.1,0.4,0.3,0.4,0.7c0,1.2-0.3,2.2-1,2.8c-0.7,0.7-1.5,1-2.5,1h-7.4
		c-1.3,0-2,0.6-2.3,1.8l-3.4,16c-0.1,0.8-0.2,1.5-0.2,2.2c0,1.4,0.3,2.4,1,3.1s1.6,1.1,2.9,1.1c1,0,2.1-0.2,3.3-0.7
		c1.2-0.5,2.3-1.2,3.4-2.3c0.5-0.5,1-0.7,1.5-0.7c0.3,0,0.6,0.1,0.8,0.3c0.2,0.2,0.3,0.5,0.3,0.8c0,0.3,0,0.5-0.1,0.7
		c-1.4,3-3.4,5.3-5.9,6.8c-2.5,1.5-5.5,2.3-8.9,2.3C423.6,162.8,420.4,160.1,420.4,154.7z"/>
	<path class="st0" d="M449.3,156.1c0-1.4,0.3-3.3,0.9-5.8l3.1-13.6c0.1-0.6,0.2-1.1,0.2-1.5c0-1.1-0.5-1.8-1.4-2.3
		c-0.4-0.1-0.9-0.3-1.4-0.4c-0.6-0.1-1-0.3-1.2-0.5c-0.3-0.2-0.4-0.5-0.4-0.8c0-0.6,0.3-1.1,0.8-1.5c0.6-0.4,1.4-0.8,2.7-1.2
		c5.3-1.5,8.9-2.2,10.8-2.2c0.9,0,1.5,0.1,1.9,0.4c0.4,0.2,0.6,0.7,0.6,1.2c0,0.1,0,0.5-0.1,0.9l-4.8,22.2c-0.1,0.6-0.2,1.1-0.2,1.6
		c0,1.4,0.6,2.1,1.7,2.1c0.6,0,1.2-0.2,1.7-0.7c0.5-0.5,1.1-1.3,1.8-2.3c0.3-0.3,0.7-0.5,1.2-0.5c0.4,0,0.7,0.1,1,0.4
		c0.3,0.3,0.4,0.7,0.4,1.2c0,0.5-0.2,1.1-0.5,1.8c-0.9,2.3-2.4,4.3-4.5,5.9s-4.3,2.4-6.8,2.4C451.7,162.9,449.3,160.6,449.3,156.1z
		 M457.5,121.2c0-0.4,0.5-1.2,1.3-2.2c0.8-1,2-2.4,3.6-4.2l2.6-3c0.5-0.9,1.2-1.5,2-1.8c0.8-0.2,2-0.4,3.6-0.4
		c1.5,0,2.5,0.1,3.1,0.4c0.6,0.3,0.8,0.8,0.7,1.5c-0.1,0.8-1.3,2.1-3.5,3.8c-2.2,1.7-4.5,3.3-7,4.7c-2.5,1.4-4.2,2.2-5,2.2
		C457.8,122.4,457.3,122,457.5,121.2z"/>
	<path class="st0" d="M496.2,155.9c0-1.5,0.3-3.4,0.9-5.7l2.3-9.6c0.2-1.1,0.4-1.9,0.4-2.6c0-1.2-0.3-2.1-0.9-2.7s-1.4-0.9-2.4-0.9
		c-1.4,0-2.8,0.5-4.2,1.5c-1.4,1-2.7,2.5-3.8,4.4c-1.1,1.9-1.9,4.2-2.4,6.9c-0.9,5.1-1.6,8.8-1.9,11.1c-0.1,1.1-0.4,1.9-0.9,2.4
		c-0.5,0.5-1.5,0.9-2.8,1.2c-1.4,0.2-3.4,0.4-6.1,0.4c-0.7,0-1.2-0.2-1.6-0.5s-0.5-0.7-0.5-1.3c0-0.1,0-0.3,0.1-0.7l0.5-2
		c1.2-4.4,2.8-11.4,5-21.2c0.1-0.8,0.1-1.3,0.1-1.6c0-1.1-0.4-1.9-1.3-2.3c-0.4-0.1-0.9-0.3-1.4-0.4c-0.6-0.1-1-0.3-1.2-0.5
		c-0.3-0.2-0.4-0.5-0.4-0.8c0-0.7,0.3-1.2,0.9-1.6c0.6-0.4,1.5-0.7,2.6-1.1c5.3-1.5,8.9-2.2,10.8-2.2c0.9,0,1.5,0.1,1.9,0.4
		c0.4,0.2,0.5,0.7,0.5,1.3c0,0.3,0,0.6-0.1,0.9l-1.1,4.5c0,0.2-0.1,0.5-0.1,0.8c0,0.3,0.1,0.5,0.3,0.5c0.2,0,0.4-0.2,0.7-0.7
		c1.7-2.5,3.6-4.5,5.7-5.9c2.1-1.5,4.6-2.2,7.6-2.2c2.4,0,4.3,0.7,5.7,2s2.2,3.3,2.2,6.1c0,1.4-0.2,2.8-0.5,4.2l-3,12.9
		c-0.1,0.6-0.2,1.1-0.2,1.6c0,0.7,0.1,1.2,0.4,1.6c0.3,0.4,0.7,0.5,1.2,0.5c0.6,0,1.2-0.2,1.7-0.7c0.5-0.5,1-1.2,1.6-2.3
		c0.4-0.4,0.8-0.7,1.3-0.7c0.4,0,0.7,0.2,1,0.5c0.3,0.3,0.4,0.7,0.4,1.3c0,0.5-0.1,1.1-0.4,1.8c-0.9,2.3-2.4,4.3-4.4,5.9
		s-4.4,2.4-7,2.4C498.5,162.9,496.2,160.6,496.2,155.9z"/>
	<path class="st0" d="M522.2,159.1c-2.5-2.5-3.8-5.9-3.8-10c0-4,1-7.8,2.9-11.4c1.9-3.6,4.6-6.5,8-8.7c3.4-2.2,7.1-3.3,11.3-3.3
		c2.9,0,5.3,0.8,7.2,2.4c1.9,1.6,2.8,3.6,2.8,5.9c0,2.4-0.6,4.5-1.7,6.2c-1.1,1.7-3.1,3.1-5.9,4.3c-2.8,1.2-6.7,2.1-11.8,2.7
		c-0.4,0-0.7,0.2-0.9,0.4c-0.2,0.2-0.2,0.6-0.1,1.3c0.2,1.9,0.9,3.5,2,4.8c1.1,1.3,2.9,2,5.3,2c1.5,0,2.9-0.4,4.2-1.1
		c1.3-0.7,2.6-1.7,3.9-3c0.5-0.4,1-0.7,1.5-0.7c0.4,0,0.7,0.1,0.9,0.4c0.2,0.2,0.4,0.6,0.4,1c0,0.3-0.1,0.7-0.3,1.1
		c-1.4,2.7-3.4,5-6.1,6.8c-2.7,1.8-5.9,2.7-9.6,2.7C528.2,162.9,524.7,161.7,522.2,159.1z M539.5,140.4c2.1-1.2,3.1-3.1,3.2-5.7
		c0-2.8-1.1-4.2-3.4-4.2c-1.5,0-2.9,0.6-4.3,1.9c-1.3,1.3-2.4,2.8-3.2,4.7c-0.8,1.9-1.3,3.6-1.5,5.1v0.2c0,0.5,0.2,0.8,0.5,0.8
		c0.1,0,0.4,0,0.7-0.1C534.7,142.5,537.4,141.6,539.5,140.4z"/>
	<path class="st0" d="M572.2,162.5c-0.4,0-1.3-0.1-2.7-0.3c-1.4-0.1-2.8-0.2-4.3-0.2h-13.1c-1.7,0-2.5-0.5-2.5-1.4
		c0-0.3,0.3-0.9,0.8-1.6c0.5-0.7,0.9-1.2,1.1-1.5l17.6-23.7c0.6-0.8,0.9-1.4,1.1-1.7c0.1-0.4,0-0.5-0.3-0.5h-5.6
		c-1,0-1.7,0.1-2.2,0.3c-0.5,0.2-0.9,0.5-1.2,1c-0.3,0.5-0.9,1.4-1.6,2.7c-0.3,0.6-0.5,1-0.7,1.3c-0.6,0.7-1.3,1.3-1.9,1.6
		c-0.6,0.3-1.3,0.5-2.1,0.5c-1,0-1.5-0.5-1.5-1.4c0-0.6,0.2-1.3,0.7-2.1l3.6-7.4c0.5-0.9,1-1.4,1.6-1.7c0.6-0.2,1.2-0.4,2-0.4
		c0.3,0,1.1,0.1,2.5,0.4c1.4,0.2,3.5,0.4,6.4,0.4h13.6c0.4,0,0.8,0.1,0.9,0.2c0.2,0.1,0.4,0.4,0.5,0.7v0.1c0,0.2-0.1,0.5-0.2,0.9
		c-0.1,0.4-0.3,0.7-0.4,0.9l-19,25.6c0,0.1-0.2,0.3-0.5,0.7c-0.3,0.4-0.4,0.7-0.5,0.9c0,0.2,0.1,0.4,0.4,0.4h6.7
		c1.2,0,2-0.2,2.5-0.5c0.4-0.3,1-1.2,1.8-2.7c0.3-0.6,0.8-1.5,1.5-2.7c0.6-0.7,1.2-1.2,2-1.5c0.7-0.3,1.4-0.5,2.1-0.5
		c1,0,1.5,0.4,1.5,1.2c0,0.5-0.3,1.2-0.9,2.1l-4,7.6c-0.7,1.1-1.4,1.8-1.9,2c-0.6,0.3-1.1,0.4-1.7,0.4
		C573.9,162.7,573.2,162.6,572.2,162.5z"/>
</g>
<g>
	<g>
		<g>
			<g>
				<g>
					<path class="st0" d="M193.4,113.3c-0.8,0.2-0.4,0.5-0.5,0.6C194.2,113.5,193.4,113.2,193.4,113.3z"/>
					<polygon class="st0" points="206.5,109.1 206.3,109.4 208.2,108.5 					"/>
					<path class="st0" d="M219,106.3c-1.3-0.4-4.5,1.1-6.8,1.4l-0.4-0.1l-0.9,0.8C213.6,107.7,217,106.6,219,106.3z"/>
					<path class="st0" d="M225.9,106.4c-0.5-0.2,1.4-0.5-1.6,0.2c0.2,0,0.2,0,0.3,0C224.9,106.6,225.3,106.5,225.9,106.4z"/>
					<path class="st0" d="M224.7,106.6C223.4,106.9,225.6,106.7,224.7,106.6L224.7,106.6z"/>
					<path class="st0" d="M230.7,105.3l-1.7,0.6c0.4,0.1,1.9-0.2,1.4,0.1C232.2,105.5,231.8,105.4,230.7,105.3z"/>
					<path class="st0" d="M232.3,104.5l-0.9,0.3C231.6,104.8,231.8,104.8,232.3,104.5z"/>
					<path class="st0" d="M229.5,105.3l1.9-0.6c-0.3-0.1-0.3-0.3-0.9,0.3C230.7,104.8,230.3,105,229.5,105.3z"/>
					<path class="st0" d="M228.4,105.4c-1,0-2.3,0.2-0.6-0.4C224.5,105.8,225.1,106.2,228.4,105.4z"/>
					<path class="st0" d="M219.5,105.5l-1.3,0.1L217,106C217.6,105.8,219.6,105.7,219.5,105.5z"/>
					<path class="st0" d="M241.6,103.6c0.1-0.2-0.7-0.3-0.8-0.5l-1.3,0.4C240.2,103.5,241.5,103.4,241.6,103.6z"/>
					<path class="st0" d="M240.8,103.1l1.9-0.6C241,102.8,240.7,103,240.8,103.1z"/>
					<polygon class="st0" points="232.4,103.6 229.4,104.8 233,103.5 					"/>
					<polygon class="st0" points="249,102.4 248,102.9 249.8,102 					"/>
					<path class="st0" d="M253.9,101.5c-0.8,0.4,1.2,0.3,0.4,0.6c1.3-0.2,2.4-0.7,3.4-1C256.6,101.3,255.4,101.5,253.9,101.5z"/>
					<path class="st0" d="M259.3,100.5c-0.5,0.1-1.1,0.4-1.7,0.6C258.2,100.9,258.8,100.7,259.3,100.5z"/>
					<path class="st0" d="M246,102.1c0.2,0.1,0.5,0.3,1.6,0.2l-0.8-0.3C246.5,102,246.3,102,246,102.1z"/>
					<path class="st0" d="M246.7,101.9L246.7,101.9c0.9-0.1,1.4-0.2,1.7-0.2C248.2,101.7,247.7,101.8,246.7,101.9z"/>
					<path class="st0" d="M245.8,102.1c0.1,0,0.1,0,0.2,0C245.9,102,245.9,102,245.8,102.1z"/>
					<path class="st0" d="M237.6,103c1.1-0.5,3.4-1.1,1.1-1.1C237.8,102.4,239.2,102.3,237.6,103z"/>
					<path class="st0" d="M244.8,101.7l-2.1,0.3c0.1,0.1,0.5,0.2-0.1,0.4L244.8,101.7z"/>
					<polygon class="st0" points="245.7,101.4 244.8,101.7 245.5,101.6 					"/>
					<path class="st0" d="M255.7,100.6c0.9-0.3,1.8-0.5,2.9-0.7c-1.2,0.1-2.4,0.2-3.6,0.4C254.9,100.5,254.5,100.8,255.7,100.6z"/>
					<path class="st0" d="M251.3,101.2c0.1,0,0.1,0,0.2-0.1C251.4,101.1,251.3,101.1,251.3,101.2z"/>
					<path class="st0" d="M269.5,98.4c-0.1,0-0.1,0-0.2-0.1c0,0,0,0.1,0,0.1L269.5,98.4z"/>
					<path class="st0" d="M254.9,100.3c-0.9,0-1.4,0.2-1.9,0.5c0.7-0.2,1.3-0.3,2.1-0.4C255.1,100.2,255.1,100.2,254.9,100.3z"/>
					<path class="st0" d="M262.3,99.8c-0.5,0-1,0-1.6,0C261.2,99.9,262.1,100,262.3,99.8z"/>
					<path class="st0" d="M251.8,101.2c0,0-0.1,0-0.1,0C252,101.3,252,101.2,251.8,101.2z"/>
					<path class="st0" d="M251.8,101.2c0.4-0.1,0.8-0.3,1.1-0.5c-0.5,0.1-1,0.3-1.4,0.4C251.6,101.1,251.8,101.2,251.8,101.2z"/>
					<path class="st0" d="M272.4,95.2c-0.1,0.4-2.4,1.1-4.5,0.9c-1.9,0.6-0.5,1.7,1.4,2.2c0-0.2,0-0.3,2-0.8
						c-0.7-0.1-4.6,0.1-2.9-0.5c2.7-0.5,2.2-0.1,3.6-0.1c-1.2-0.4,3.4-1.1,2.7-1.8l-2.3,0.5C272.2,95.6,273.1,95.3,272.4,95.2z"/>
					<path class="st0" d="M265.4,98.8l-0.8,0.2c1-0.1,1.7,0,3,0.1c1.4-0.4,1.6-0.6,1.7-0.7c-1.4,0.1-2.8,0.4-4.1,0.5L265.4,98.8z"/>
					<path class="st0" d="M260.8,99.5c0.6-0.5,2.6-1,1.3-1.3c-2.5,0.4-1.7,0.6-3.1,1C262.9,98.6,257.9,99.7,260.8,99.5
						c-0.8,0.1-1.5,0.3-2.2,0.4c0.7-0.1,1.4-0.1,2.1-0.1c0,0-0.1,0-0.1,0l0,0l0,0c-0.2,0-0.2-0.1,0,0c0,0,0.1,0,0.1,0
						C260.7,99.7,260.7,99.6,260.8,99.5c1.2-0.1,0.2,0.1-0.2,0.2c0,0,0,0,0,0.1c0,0,0,0,0,0l3.9-0.8
						C263.7,99.1,262.7,99.2,260.8,99.5z"/>
					<path class="st0" d="M240.5,100.7c0.1,0,0.1,0,0.1,0.1C240.9,100.6,241,100.6,240.5,100.7z"/>
					<path class="st0" d="M242.2,100.6c-0.3,0.1-0.5,0.3-1.4,0.4c-0.8,0,0-0.2-0.1-0.3c-0.5,0.2-1.9,0.6-0.1,0.5l0.3-0.1
						c1.6-0.1,3.8,0.1,3.5,0.2C243.8,101,243.4,100.8,242.2,100.6z"/>
					<path class="st0" d="M251.6,99.9c1.1-0.3,2.2-0.5,3.3-0.7c-0.6,0-1.2-0.1-1.7-0.1l0.1,0.2C251.4,99.5,251.8,99.7,251.6,99.9z"
						/>
					<polygon class="st0" points="269.9,98.5 269.5,99 271.3,98.2 					"/>
					<polygon class="st0" points="274.2,98 274.1,98.4 275.2,98 					"/>
					<path class="st0" d="M427,105.2l-1,0C426.5,105.2,426.8,105.2,427,105.2z"/>
					<path class="st0" d="M434.1,106.3l0.2-0.2C433.9,106.2,433.8,106.2,434.1,106.3z"/>
					<path class="st0" d="M380.5,94.9c1.4,0.5,2.9,1.2,2.8,0.7l-0.4-0.5C381.9,95.2,381.1,95.1,380.5,94.9z"/>
					<path class="st0" d="M453,104c-0.1-0.1-0.2-0.2-0.4-0.2c-0.4,0.1-0.7,0.1-1,0.2C452,104,452.5,104,453,104z"/>
					<path class="st0" d="M454.4,102.6l1.8,0.8C455.8,103.1,455.2,102.9,454.4,102.6z"/>
					<path class="st0" d="M388.5,101.2l-1.2,0.3C389.1,101.7,388.3,101.4,388.5,101.2z"/>
					<path class="st0" d="M318.4,94c1.2,0.1,2.2,0.1,3.1,0.1C320,93.9,318.8,93.6,318.4,94z"/>
					<path class="st0" d="M430.5,101c-0.6,0-0.9,0-0.9,0.1C430.2,101.2,430.6,101.2,430.5,101z"/>
					<path class="st0" d="M325.1,94c-0.2,0-0.4-0.1-0.7-0.1c-0.9,0.1-1.8,0.2-2.9,0.2C322.6,94.2,323.9,94.3,325.1,94z"/>
					<path class="st0" d="M248.1,105.7c-0.1,0-0.2,0-0.3,0C247.8,105.8,247.9,105.7,248.1,105.7z"/>
					<path class="st0" d="M206.9,109c0.4-0.1,1-0.3,1.6-0.4C208.2,108.7,207.7,108.8,206.9,109z"/>
					<path class="st0" d="M291.5,96.2C290.6,96.4,291.4,96.3,291.5,96.2L291.5,96.2z"/>
					<path class="st0" d="M286.9,95c0.2-0.1,0.3-0.1,0.3-0.2C287.2,94.8,287.1,94.9,286.9,95z"/>
					<path class="st0" d="M334.2,91C334.2,91,334.2,91,334.2,91C334,91,334,91,334.2,91z"/>
					<path class="st0" d="M290.1,96.2c0.3,0,0.7,0,1.2,0C291.1,96.2,290.8,96.2,290.1,96.2z"/>
					<path class="st0" d="M290.4,96.4c-0.3,0-0.6,0-0.8,0C289.4,96.5,289.5,96.5,290.4,96.4z"/>
					<path class="st0" d="M292.8,96.1c-0.5,0.1-1,0.1-1.5,0.1c0.2,0,0.3,0,0.2,0C291.8,96.2,292.2,96.2,292.8,96.1z"/>
					<path class="st0" d="M323.2,98c-0.1,0-0.1,0-0.2,0C322,98.2,322.5,98.1,323.2,98z"/>
					<path class="st0" d="M404.9,92.8c0,0-0.1,0-0.1,0C404.8,92.9,404.9,92.9,404.9,92.8L404.9,92.8z"/>
					<path class="st0" d="M408.2,93c-1.5,0.3-2.3,0.1-3.3-0.1l0.9,1.4L408.2,93z"/>
					<path class="st0" d="M410.2,103.1l2.3,0.6c-2.9,0.3-4.8-0.1-2.7,0.7c0.2-0.6,2.5-0.5,4.7-0.2c2.2,0.3,4.5,0.5,4.7-0.1l1.5,0.5
						c-0.4-0.1-0.5,0-0.9-0.1c2.9,1,2.3-0.7,6.1,0c1.3,0.3,2.2,0.7,1.3,0.7l3,0.1c0.9,0.2,0.6,0.4-0.2,0.2l4.5,0.6l0,0
						c0.7-0.1,2.2-0.2,2.9-0.2c1.1,0.4-0.6,0.1-0.3,0.3l2.5,0.1c1,0.5-1.2,0.5-2.9,0.2c2.1,1.7,2.1,0,7,1.7l-2.4-0.3
						c1.4,1,3.2,1.1,5.8,2.1c-0.6-0.4-5.1-2.2-2.3-2c0.7,0.2,1.7,0.5,3.2,0.5c-0.1,0.5,1.4,0.6,3.1,0.9l-0.2,0.6
						c1.9,0.2,1.9-0.2,3-0.2c2.1,0.5,2.5,1.1,2.9,1.6c3.4,0.8-2.2-1.3,1.9-0.5c1.4,0.4,2.6,0.7,3.9,0.9c0.6,0.1,1.3,0.2,2,0.2
						c0.4,0,0.7,0.1,1.1,0.1c0.2,0,0.4,0,0.6,0.1c0.3,0,0.6,0.1,0.9,0.1c0.1,0,0.2,0,0.3,0c0.1,0,0.1,0,0.2,0c0.1,0,0.2,0,0.2,0
						c0.1,0,0.2,0.1,0.2,0.1c0.1,0.1,0,0.1-0.1,0.1c-0.3,0.1-0.7,0.2-0.3,0.3l1.8-0.5c0.4,0,0.3,0.2,0.2,0.3
						c1.5-0.2,0.1-0.6,2.5-0.8c0,0,0,0,0.1-0.1l8.5-3.8l-7.9,1.2c-1,0.2-4.3-2.7-7.3-2.9c-0.6-0.4,0.5-0.3,0.3-0.6
						c-4.1-0.7-3.5-0.7-6.9-1c-0.9-0.4-1.7-0.8-2.6-1.2c1.9,1-0.8,0.9-3.2,0.7c0.7,0.4,1.2,0.8,1.6,1c-1.2-0.2-2.4-0.4-3.7-0.6
						c-0.4-0.2,0-0.3,0.7-0.4c-0.3,0-0.5,0-0.7,0c-1.2-0.6-0.5-0.7,0.5-0.9c0.4,0.2,0.8,0.5,1.2,0.7c1-0.1,1.9-0.3,1.8-0.7
						c-0.3,0-0.7-0.1-1.2-0.2c0.3,0,0.4-0.1,0.3-0.2c-0.1-0.1-0.5-0.1-1.1-0.1l-0.6-0.9l-0.3,0.2c-1.5-0.5-3.1-1.1-4.6-1.6
						c-3.6-0.1-6.8,0.2-12.2-0.6c1.4-0.2,0.5-0.8,0.7-1.4c1.3,0.9,4.3,0.6,7,1.4c-1.4-0.4-1.1-0.6-0.7-0.6l-5.1-0.5
						c0.2-0.5-1-0.6-2.3-1.1c0.8,1.2-3.9-0.1-6-0.2c-0.1-0.3,0.5-0.6,3,0c-2.6-1.3-3.8,0.5-6.4-0.6c0.6,0.1,0.9,0.2,1.2,0.1
						c-1.5,0-4.9-0.8-4.1-1l0.6,0.1c-2-0.4-5.1-0.9-7.8-1.2c-2.7-0.3-5-0.3-5.3,0c0-0.1,0.7-0.9,0.9-1.1c-2.6,0.6-5.1,1.2-7.6,1.9
						c0.7-0.6-1.5-2.7,1.9-2.7c-1-0.2-2.2-0.5-4.2-0.5c0.7,0.2,1.5,1.2,0.6,1.2c-2.4-1.1-1.7-0.7-4.7-1.7c1,0.3-0.3,1.3-1.8,1.1
						c0.3-0.1,0-1.1,0.6-1.2l-4,0.7c1-0.1,0.3-0.9-0.6-1.3c0.4,0.3-3.4-0.4-4.5-0.3l1.6,0.4c-4.4-0.5-4.5,1.2-8.9,0.8
						c0.5-0.2,1.4-1.3-0.8-1.6c-1.1,0.5-4.7,2.5-8.6,2.7l-0.7-0.4c-1,0.1-2,0.1-3,0.2c1.9-0.8,7.2-2.3,10.1-2.8
						c-1.6-0.4-0.4-0.4-2.9-0.5c-0.9-0.4,1.4-0.4,2.1-0.4l-5.8-0.5c0.1,0.3-1,0.4-2.1,0.5c-1.1,0.1-2.2,0.2-2.2,0.5
						c2.1-0.2,4.2-0.3,6.3-0.4c0.2,0.7-3.7,1.7-7.8,1.4c-1-0.3,0.8-1.2,0.8-1.4c-0.5,0.2-3.9,0.3-4.3,0.1l1.8-0.3
						c-2.3-0.3-3.8,0.7-6.5,0c-0.9-0.1-2.8-0.9-3-0.5c1.5,0.8,1.8,3.2,0.8,3.7c-0.3-0.1-5-0.8-6-1.2c-1.6-0.6,2.4-1.4,1-1.9
						c-0.1,0.2-0.9,0.4-1.3,0.5c-1-0.2,0.4-0.6-1.8-0.5c-0.4,0.7-4.4,0-1,0.6c-2.1,0.2-2.3-0.1-4.7-0.1c0.8,0.4-2.2,1.5-4.3,1.7
						c0.1-0.2-0.4-0.4-0.6-0.5c-4.3,0-6.7-0.2-10.7-0.1c-0.4-0.2-2.3-0.3-1.5-0.6c-0.6,0.1-1.1,0.4-2.3,0.5
						c-2.4-0.5,2.8-0.2,0.9-0.8c-0.1,0.4-3.2,0.7-5,1.1c0.6,0.6,4.1-0.1,5.9-0.4c0,0.8-3,1.9-7.2,2.5c-3.3,0.4-1.5-0.5-2.1-0.3
						c-3.2,0.1-4.5,0.5-5.6,1c-1.2,0.4-2.2,0.7-4.9,0.6c-2.1-0.4-0.2-1.1-0.7-1.4c2.7-0.4,4.2,0,6.1-0.1l-2.3-0.1
						c0.9-0.2,2.7-0.5,3.7-0.4c-1.8-0.3-10.6,0.6-15.5,0.7c-0.8,0.3-2.3,0.6-1.6,0.7l1.5-0.2c1.4,0.3-2.8,0.9-0.9,0.9
						c-2,0.5-4.3,1.2-7.2,1.3l-0.6-0.6c0.1,0.2,1.9,0.2,2.7-0.1c-1.2,0.4-4.5-0.4-5.7,0.6c0.7,0.1,1.4,0.1,2.1,0.2
						c-2,0.5-4.5,1.5-7.1,1.6c1.2,0.5,0.6-0.1,2.5,0.3c-1.7-0.7,6.5-0.7,3.9-1.4c2,0.6,3.3,0,5.8,0.5c-0.1-0.2-0.9-0.3,1.3-0.4
						c0.1-0.1,0.3-0.2,0.5-0.2c0.1,0,0.1,0,0.1,0c0,0-0.1,0-0.1,0c0.1,0,0.1,0,0,0c-0.5,0-0.9-0.1-1.1-0.2c1-0.6,4.4-0.9,5.6-1.2
						c1.3,0-0.5,0.3,0.2,0.4c0.6-0.2,1.1-0.4,1.7-0.5c0.2,0.4,3.4,0.5,0.5,1l2.7-0.2c1.6,0.1,3.8,0.1,5.1-0.2c1.3,0,3.2-0.7,2.1-0.3
						c1.4-0.2,2.8-0.4,4.2-0.5l0,0.1c2.1-0.1,4.2-0.4,6.5-0.6c2.2-0.2,4.5-0.3,6.9,0c1.4-0.2,2.9-0.3,5.2-0.3l0.5,0.4
						c0.9-0.1,2.3,0,3.5,0c1.2,0.1,2.3,0.1,2.7-0.1c2,1.1,8.8,0.1,12,0.4l0.1-0.5c2.2,0.1,4.3-0.1,7-0.2l-0.2-0.5
						c2.4-0.3,6,0.5,9.7,0.6c-0.3,0.2-1.2,0.1-1.9,0c4.4,1.1,9.4-0.3,13.4,0.7c1-0.1,1.7,0,2.4,0.2c-0.1,0-0.2,0-0.2,0
						c0.1,0,0.3,0,0.4,0c0.4,0.1,0.9,0.2,1.4,0.3c-0.4-0.1-0.8-0.3-1.1-0.3c0.8,0.1,1.9,0.1,3.1,0.1l0.4,0.5c0.1,0,0.2,0,0.3,0
						c1.1,0.3,0.9-0.2,0.4-0.6c0.6,0,1.1-0.1,1.5-0.2c0.8,0.8,3,0,4.2,0.9c0.8-0.3,5.8,0.3,6.5-0.5c0,0.1,0.4,0.2-0.3,0.1
						c1.3,0.2,2.5,0.5,3.7,0.4l0.5,0.7l2.9-0.5c1.6,0.6,2.3,0.9,0.6,1.1c4.1-0.2,3.3,0.2,6.9-0.1l-0.2,0.4c1.2,0.2,3.3-0.1,4,0.3
						c1.3,0.6,4.7,1.1,8.6,1.8c2,0.4,4,0.7,6.1,1.2c2,0.4,4,0.9,5.7,1.5c-0.6-0.7,0.2-0.4,1.2-0.1c1,0.4,2.1,0.8,2.4,0.4
						c0.3,0.4,1.3,0.7,0.1,0.7c3.6,0.5,5.2,1.6,7.8,1.5c0.3,0.4-0.8,0.2-0.5,0.5c0.3,0,1.2,0,1.5,0.3c0.3,0.2-0.6,0.1-1.2,0.1
						c3.6,0.8,4.2,0.1,4.6-0.6c1.7,0.8,2.6,1,4.1,0.9c0.6,0.4,1.5,1-0.7,0.5c1.3,0.4,7.5,2.5,7.8,2c0.3,0.3,1.7,0.6,2.1,0.6
						c2.8,0.9,3,1.1,5.7,1.9l-0.7-0.4c1.1-0.3,2,0.4,3.5,1l0.4-1.9c-0.3,0-0.6,0-1,0l0.1-0.1c-2.6-0.3-3.2-0.2-3.8-0.2
						c-0.3,0-0.4,0.1-0.8-0.1c-0.5-0.1-1.3-0.4-2.5-0.8l0.2,0.5c-0.7,0.9-4.4-1.5-7.5-1.8l1,0.5c-1.7,0-4.3-2.4-5.9-2.8
						c-0.3-0.2,0.6,0,1.1,0c-4.2-1.4-0.7,0.5-3.9,0.1c-0.5-0.4,0.9-0.7-1.2-1.2c-1-0.5-6.5-0.1-9.3-1.2c0.6,0.4,1.2,0.7-0.3,0.7
						c-2.3-0.3-6-2-8.2-1.5c-0.3-0.1-0.4-0.2-0.4-0.3c-1.8-0.1-5.8-0.5-6.9-0.2c-1.4-1.8-11-0.7-10.8-2.1l-5.4-0.5l0.2-0.1
						c-3.5-0.5-4.7-0.3-6,0c-0.8-0.2-0.2-0.3-0.1-0.3c-5-0.8-5.6-0.7-9.9-0.4l-0.4-0.5c-1.2,0.1-7.3-1.3-12.3-1.1
						c0.1-0.1,0.2-0.1,0.6-0.2c-2.8,0.1-6.2-0.4-9.1-0.7c-2.9-0.3-5.4-0.5-6.5,0.4l-3.7,0.3c4.8,0.3-0.7,0.8,1.2,1.1
						c-1.9,0.1-4.9-0.7-2.5-0.7l0.4,0.1c0.9-0.9-5.9-0.5-5.8-1.1c-4.7-0.1-9.4-0.2-14-0.4c-4.6-0.1-9.1-0.2-13.5-0.1l1,0.7l-3.1,0
						c-0.8-0.1-1.1-0.5,1.1-0.6c-1.2-0.4-3.7,0.5-3.7,0.6c-4.3-0.2,1.7-0.9,0.3-0.9l-1.8,0.1l0.4,0.1c-1.4,0.4-1.6,0.6-4.2,0.7
						c-1.7-0.1-0.9-0.4-1.5-0.4c0-0.1-0.2-0.1-1,0l-3.9,0.1l1.6,0.5c-1.7,0.4-3.7,0.1-1.8,0.7c-1.3-0.5-5-0.3-8.5-0.1
						c-3.5,0.2-6.8,0.5-7.7,0.5c-2.4,0.6-4.7,0.8-7.7,1c0.7,0.1,1.2,0.7-1.3,0.8c0.8-1.4-4.7-0.1-6.8-0.9c1.9,0.4-7.2,0.9-4.2,1.5
						c-2.1,0.1-0.2-0.5-1.8-0.6c-2.5,0.5-5.3,0.8-8.2,1c-2.9,0.2-6,0.5-9.1,1c-0.1,0.2,1,0.3-0.3,0.8l-3.4-0.4
						c-1.2,0.3-1,1.2-3.3,0.9c0.3,0.1,0.8,0.2,0,0.4c-12.3,1-24.5,4.8-37,6c1.7,0,0.6,0.2-0.6,0.5c0.8-0.1,0.1,0.4,0.3,0.6l-5.2,0.6
						c-0.8,0.9-5.4,1.4-5.8,2.2l1.6-0.5c-1.9,1.3,3.4,0.8,3.3,1.9c2.2-1.4,6.5-0.3,10.2-2.3c0.9,0-0.7,0.5-0.2,0.6
						c0.9-0.6,2.1-1,4.3-1.3l-0.2,0.2c6.2-1.4,9-1.5,16.1-2.5l-0.6-0.4c1.5-0.2,1.9-0.1,2.6-0.1c1.6-1-4.3,0.7-2.8-0.3
						c2.2,0.6,10.7-1.8,12.3-0.9c2.3-0.4-0.8-0.4,1.6-0.8l0.7,0.2l0.5-0.5c1.5-0.2,2.4,0.1,2.5,0.3c-0.4,0-1,0.2-1.4,0.3
						c2,0,5.6-0.9,6.3-0.9l-2.3,0.1c6.4-1.2,14.2-1.8,20.4-3l-0.5-0.2c4.7-0.9,3.8-0.2,9-0.9l-0.2,0.1c1-0.3,2.4-0.6,3.8-0.7
						c-1.3,0.4,2.5,0.3,0.8,0.7c5.1-0.9,2.5-0.6,5.9-1.6l0.8,0.3c1.1-0.4,1.2-0.6,3.8-0.9c-2.1,0.5,1.7,0.4-0.7,1
						c5.5,0.5,8.1-1.3,10.7-0.3c2.5-1.2-4.8-0.3-3.4-0.6c-1.2-0.3,2-0.9,3.8-0.9c1.8-0.1,3.1,1.2,7.5,1c-0.4,0-0.5,0.1-0.9,0.1
						c1.7,0.2,3.2-0.5,5.3-0.1c1.1-0.7,2.6,0,2.9-0.8l-4,0.3c2.3-0.3,4.4-1.3,8.2-0.9c-0.3,0.2-1.4,0.4-2.2,0.5
						c1.1,0.2,2.1-0.2,3.3,0c-0.3,0.8-4.9,0.3-7.4,1c1.2,0.3,4.6-0.7,3.4,0.2c1.7-1.1,4.3,0,7.3-0.9l-0.2,0.5
						c0.5-0.1,1.4-0.3,2.3-0.3l-1.6,0.6c2.4-0.6,4.7,0.4,7,0.1c-4.9,0.1-1.1-0.6-3.1-0.9c6-0.7,3.5,1.2,10.1,1
						c-0.9,0.1-3.4-0.3-2-0.5c1.3,0.1,3,0.3,3.7,0.6c4.4-0.1-0.7-0.5,1.2-0.8c1.5,0.6,2.2-0.2,4.1-0.4l0,0.5c5.1,0.4,1.4-1,5.9-0.5
						l-1.9,0.6l2.4-0.1l-0.5,0.5c2.6-0.3,3.4-0.2,5.9,0c-0.6-0.4,0.4-0.9,2.6-0.8c1.5,0.4-0.9,0.4,2.3,0.5c-0.7,0.3-1.5,0.6-2.9,0.1
						c-0.1,0.2-0.7,0.3-0.9,0.4c1.6,0.4,4.1,0.3,5.3,0.3c-0.4,0-1-0.1-1.2-0.2l4.6-0.5c0.7,0.2,0.1,0.3-0.4,0.4c0.9,0,1.6-0.2,3-0.2
						c-0.4,0.4-0.3,0.8-2.3,0.9c1.5-0.1,2.9-0.1,4.4-0.2c0.3,0.2,2.2,0.6,1.6,0.7c2.4,0.4,6-0.4,9.2,0.2c0.2-0.1,0.5-0.1,1.2-0.1
						c3,0.4,5.6,1.1,9.3,0.9c0.7,0.3,1.3,0.6,2,0.9c2.8,0.2-2.7-1.2,2-0.9c3.3,0.1,1.2,0.7,2.3,1.1c1.7-0.2,4.6-0.6,7.6,0.3
						C411.9,103.3,411.1,103.1,410.2,103.1z M444.5,107.9c-0.7,0-2.1,0-2.5-0.3C442.9,107.1,443.4,107.5,444.5,107.9z M448.2,101.9
						c0.5,0,1.3,0.2,2.1,0.6C449.7,102.4,449,102.2,448.2,101.9z M301.6,95C301.6,95,301.6,95,301.6,95C303.1,95,302.6,95,301.6,95z
						 M298.4,95c-0.3,0.1-0.3,0.2-0.1,0.2c0.2-0.1,0.9-0.2,1.7-0.2C299.8,94.9,299.4,94.8,298.4,95z M313.2,95.1l0.6,0.1
						C312.4,95.4,312.8,95.2,313.2,95.1z"/>
					<path class="st0" d="M454.2,102.7c0.2,0.1,0.2,0.2,0.2,0.3C454.7,103.1,454.7,103,454.2,102.7z"/>
					<path class="st0" d="M388.7,101.2l-0.1,0c-0.1,0-0.1,0.1-0.1,0.1L388.7,101.2z"/>
					<path class="st0" d="M346.7,89.1c0.6,0.1,1,0.2,1.2,0.3C347.9,89.2,347.7,89.1,346.7,89.1z"/>
					<path class="st0" d="M282.1,97.4l2-0.3c-1,0.1-1.3,0-1.8,0C282.3,97.2,282.7,97.3,282.1,97.4z"/>
					<path class="st0" d="M264.5,96.6c-0.3,0.1-0.6,0.1-0.9,0.2l0.1,0.2C265,96.8,265.8,96.5,264.5,96.6z"/>
					<path class="st0" d="M280.1,96c-0.2-0.4-1.4-0.1-2.8,0.2c0.1,0,0.2,0,0.2,0C277.2,96.8,278.6,96.4,280.1,96z"/>
					<path class="st0" d="M276.9,96.2c-0.4,0.1-0.9,0.1-1.3,0.2C275.5,96.6,276.2,96.4,276.9,96.2z"/>
					<path class="st0" d="M294.5,95.6c-0.7,0-0.4,0.6-0.8,0.4C293.1,96.6,298.1,95,294.5,95.6z"/>
					<polygon class="st0" points="278.8,94.8 279.4,95.3 280.1,94.8 					"/>
					<path class="st0" d="M289.9,94l-2.2,0.1c0,0.1-0.2,0.2-0.6,0.2C288.4,94.2,289.9,94.2,289.9,94z"/>
					<path class="st0" d="M287,94.4c-0.7,0.1-1.4,0.1-1.8,0.3C285.6,94.6,286.5,94.5,287,94.4z"/>
					<polygon class="st0" points="281.8,94.3 282.5,94.4 284.1,94.2 					"/>
					<path class="st0" d="M313.9,92.3l2.4-0.3c0.2-0.2-0.4-0.3-1.3-0.1C314.4,92.1,313.5,92.2,313.9,92.3z"/>
					<path class="st0" d="M306.4,91.4c0.7,0.1,0.7,0.2,1.1,0.3l0-0.6L306.4,91.4z"/>
					<path class="st0" d="M313.5,90.8c0.2-0.2,3.5-0.7,0.4-0.5C313.7,90.5,311.3,90.8,313.5,90.8z"/>
					<polygon class="st0" points="350.4,90.8 349.8,90.8 349.9,91.9 					"/>
					<path class="st0" d="M383.1,89.9c-2.9-0.5-0.7,0.6-3.3,0.1c-0.7,0.2,2.1,0.4,1.4,0.6C382.9,90.4,383.9,90.6,383.1,89.9z"/>
					<path class="st0" d="M381.2,90.5c-0.3,0-0.6,0-0.9,0.1C380.8,90.6,381,90.6,381.2,90.5z"/>
					<polygon class="st0" points="200.1,110.1 198.2,110.4 199.5,110.4 					"/>
					<path class="st0" d="M196.8,111.8l-0.6-0.5l-0.9,0.9C195.6,112,196.4,111.7,196.8,111.8z"/>
					<path class="st0" d="M449.3,110.1l0.2-0.1c-0.3-0.2-0.7-0.3-1.5-0.5L449.3,110.1z"/>
					<polygon class="st0" points="424.6,105.5 425.1,105.5 424.3,104.8 					"/>
					<path class="st0" d="M403.6,103.6c0.9,0.1,1.9,0.1,2.7,0.2C404.5,103.7,403.4,102.8,403.6,103.6z"/>
				</g>
			</g>
		</g>
	</g>
</g>
</svg>
